# xmcd
#
# Track frame offsets: 
#        150
#        12374
#        23856
#        37296
#        50426
#        63674
#        77019
#        89681
#        103040
#        112738
#        125270
#        137148
#        148926
#        164486
#        173890
#        185695
#        199183
#        213152
#
# Disc length: 3039 seconds
#
# Revision: 0
# Processed by: cddbd v1.5.2PL0 Copyright (c) Steve Scherf et al.
# Submitted via: ExactAudioCopy v0.95b4
#
DISCID=0a0bdd12
DTITLE=Howlin' Wolf - Together - Howlin' Wolf
DYEAR=1900
DGENRE=Blues
TTITLE0=How many more years
TTITLE1=Saddle my pony
TTITLE2=The wolf is at your door
TTITLE3=Moanin' at midnight
TTITLE4=California blues
TTITLE5=California boogie
TTITLE6=Bluebird
TTITLE7=Everybody's in the mood
TTITLE8=Look a here baby
TTITLE9=Mr highway man
TTITLE10=Chocolate drop
TTITLE11=Howlin' Wolf boogie
TTITLE12=Sweet woman
TTITLE13=Smile at me
TTITLE14=Getting old and gray
TTITLE15=My baby walked off
TTITLE16=Drinkin' CV wine
TTITLE17=My troubles and me
EXTD=
EXTT0=
EXTT1=
EXTT2=
EXTT3=
EXTT4=
EXTT5=
EXTT6=
EXTT7=
EXTT8=
EXTT9=
EXTT10=
EXTT11=
EXTT12=
EXTT13=
EXTT14=
EXTT15=
EXTT16=
EXTT17=
PLAYORDER=
